HIERARCHY
ROOT Hips
{
  OFFSET -125.086 92.215 135.881
  CHANNELS 6 Xposition Yposition Zposition Zrotation Xrotation Yrotation
  JOINT LeftUpLeg
  {
    OFFSET 8.64259 1.95398 -2.38835
    CHANNELS 3 Zrotation Xrotation Yrotation
    JOINT LeftLeg
    {
      OFFSET 43.7702 0 0
      CHANNELS 3 Zrotation Xrotation Yrotation
      JOINT LeftFoot
      {
        OFFSET 40.6238 0 0
        CHANNELS 3 Zrotation Xrotation Yrotation
        JOINT LeftToeBase
        {
          OFFSET 12.7242 0 0
          CHANNELS 3 Zrotation Xrotation Yrotation
          End Site
          {
            OFFSET 0 0 0
          }
        }
      }
    }
  }
  JOINT RightUpLeg
  {
    OFFSET -8.2249 1.95398 -2.59336
    CHANNELS 3 Zrotation Xrotation Yrotation
    JOINT RightLeg
    {
      OFFSET 43.5653 0 0
      CHANNELS 3 Zrotation Xrotation Yrotation
      JOINT RightFoot
      {
        OFFSET 40.6238 0 0
        CHANNELS 3 Zrotation Xrotation Yrotation
        JOINT RightToeBase
        {
          OFFSET 12.7242 0 0
          CHANNELS 3 Zrotation Xrotation Yrotation
          End Site
          {
            OFFSET 0 0 0
          }
        }
      }
    }
  }
  JOINT Spine
  {
    OFFSET 0.165834 0.87714 6.61349
    CHANNELS 3 Zrotation Xrotation Yrotation
    JOINT Spine1
    {
      OFFSET 7.38963 1.71661e-005 0
      CHANNELS 3 Zrotation Xrotation Yrotation
      JOINT Spine2
      {
        OFFSET 11.9445 1.14441e-005 0
        CHANNELS 3 Zrotation Xrotation Yrotation
        JOINT Spine3
        {
          OFFSET 14.7254 4.19617e-005 0
          CHANNELS 3 Zrotation Xrotation Yrotation
          JOINT Spine4
          {
            OFFSET 10.9679 0 0
            CHANNELS 3 Zrotation Xrotation Yrotation
            JOINT RightShoulder
            {
              OFFSET 2.46616 -1.6653 3.69651
              CHANNELS 3 Zrotation Xrotation Yrotation
              JOINT RightArm
              {
                OFFSET 13.0012 0 0
                CHANNELS 3 Zrotation Xrotation Yrotation
                JOINT RightForeArm
                {
                  OFFSET 28.7848 1.52588e-005 0
                  CHANNELS 3 Zrotation Xrotation Yrotation
                  JOINT RightHand
                  {
                    OFFSET 26.5688 1.52588e-005 0
                    CHANNELS 3 Zrotation Xrotation Yrotation
                    End Site
                    {
                      OFFSET 0 0 0
                    }
                  }
                }
              }
            }
            JOINT LeftShoulder
            {
              OFFSET 2.38034 -1.29275 -3.7523
              CHANNELS 3 Zrotation Xrotation Yrotation
              JOINT LeftArm
              {
                OFFSET 16.3182 6.10352e-005 0
                CHANNELS 3 Zrotation Xrotation Yrotation
                JOINT LeftForeArm
                {
                  OFFSET 27.0901 0 0
                  CHANNELS 3 Zrotation Xrotation Yrotation
                  JOINT LeftHand
                  {
                    OFFSET 24.5451 1.52588e-005 0
                    CHANNELS 3 Zrotation Xrotation Yrotation
                    End Site
                    {
                      OFFSET 0 0 0
                    }
                  }
                }
              }
            }
            JOINT Neck
            {
              OFFSET 5.0226 -0.0266342 0
              CHANNELS 3 Zrotation Xrotation Yrotation
              JOINT Head
              {
                OFFSET 6.69363 2.86102e-005 0
                CHANNELS 3 Zrotation Xrotation Yrotation
                End Site
                {
                  OFFSET 0 0 0
                }
              }
            }
          }
        }
      }
    }
  }
}
MOTION
Frames:	7
Frame Time:	0.0416667
266.53 84.2204 -271.53 153.332 -5.83875 -175.624 -161.633 42.9108 -165.901 104.539 15.6652 159.795 38.5681 -18.34 16.0225 144.615 69.6326 68.2499 147.306 -41.5893 52.1288 -27.5576 -46.6269 32.2633 28.518 14.0802 -10.5367 3.80027 -43.7106 117.89 -5.43849 12.9899 -87.6674 1.01341 -9.97097 4.18894 -10.6272 -9.77708 4.62678 -33.4672 -10.7641 0.966897 -13.4545 -10.7641 0.966896 121.774 -34.3341 -45.2436 50.0674 5.15821 -14.0421 -2.44813 74.9634 -0.00490293 -0.456123 -0.0180158 1.57888 -67.3202 -50.4834 112.735 18.3881 8.21968 71.927 41.1801 38.3002 -128.053 -21.485 -9.06803 45.6357 -83.5319 8.49398 -15.7432 27.8317 18.2023 61.481 
266.729 84.1942 -271.71 153.318 -5.63914 -175.595 -162.289 42.8706 -165.371 104.719 16.3374 159.47 38.868 -18.2862 16.0613 136.804 70.4818 76.0347 147.457 -41.6627 52.0537 -28.0949 -46.5538 32.5256 28.4974 13.9539 -10.4508 2.32183 -44.3009 116.324 -5.44202 13.013 -87.6587 0.967361 -9.97525 4.19927 -10.6732 -9.7809 4.63729 -33.5134 -10.7713 0.975424 -13.5008 -10.7713 0.975431 121.878 -34.6064 -45.1981 49.6828 4.90873 -13.9116 -2.40555 75.6917 0.0410321 -0.547815 -0.0231713 1.91559 -67.264 -50.2999 112.853 18.3196 8.09729 71.7232 41.5717 38.1959 -128.276 -21.3769 -9.02631 45.6839 -83.4762 8.49465 -15.7269 27.7844 18.2206 61.5808 
267.305 84.1163 -272.234 153.269 -5.06245 -175.512 -164.183 42.7396 -163.871 105.6 18.9644 158.39 39.6216 -17.5855 15.6601 113.34 70.6536 99.3138 147.888 -41.899 51.8531 -29.6579 -46.347 33.2382 28.4375 13.6102 -10.1767 -2.10647 -45.7603 111.565 -5.45234 13.0798 -87.6337 0.833774 -9.98809 4.22899 -10.8068 -9.79242 4.66753 -33.6476 -10.7924 0.999811 -13.6349 -10.7924 0.999818 122.185 -35.4007 -45.0616 48.5561 4.17081 -13.5123 -1.55898 77.7593 -0.580065 -0.829239 -0.0420281 2.82508 -67.1011 -49.7654 113.197 18.1121 7.73668 71.1317 42.7178 37.8745 -128.923 -21.064 -8.90232 45.8104 -83.3129 8.49661 -15.6794 27.6476 18.2735 61.8703 
268.223 83.984 -273.075 153.184 -4.14552 -175.379 -167.147 42.506 -161.518 107.285 22.8595 156.493 40.9794 -16.6593 15.0484 86.8779 65.9747 125.154 148.552 -42.3473 51.5883 -32.1693 -46.0307 34.2288 28.3501 13.133 -9.66447 -9.44696 -47.2821 103.458 -5.46946 13.1865 -87.5939 0.620174 -10.0099 4.27594 -11.0204 -9.81212 4.7154 -33.8622 -10.8273 1.03788 -13.8496 -10.8273 1.03788 122.691 -36.6828 -44.8274 46.7243 2.9479 -12.803 9.74634 80.7243 -11.6829 -1.32335 -0.08394 4.08513 -66.841 -48.9057 113.755 17.755 7.1431 70.1836 44.5832 37.2984 -129.961 -20.5677 -8.69649 45.9713 -83.0466 8.50274 -15.6028 27.4295 18.3573 62.3328 
269.448 83.7886 -274.208 153.057 -2.92757 -175.198 -171.137 42.1313 -158.68 109.89 27.5109 153.557 43.0641 -15.9862 14.4114 71.9371 58.1088 138.769 149.402 -43.0728 51.3439 -35.5645 -45.6217 35.2817 28.2808 12.6257 -8.85708 -19.2015 -47.7645 92.2425 -5.49346 13.3294 -87.5409 0.33439 -10.0414 4.3378 -11.3062 -9.84088 4.77857 -34.1495 -10.8759 1.08715 -14.1369 -10.8759 1.08715 123.403 -38.4177 -44.4794 44.2272 1.23161 -11.6985 42.6631 82.9317 -44.3239 -2.05295 -0.159819 5.45472 -66.494 -47.75 114.519 17.2304 6.31656 68.9117 47.1333 36.4014 -131.342 -19.9188 -8.40975 46.099 -82.6817 8.51545 -15.4988 27.1373 18.4683 62.9516 
270.943 83.5179 -275.608 152.883 -1.44749 -174.974 -175.92 41.6556 -155.432 114.347 32.9545 149.126 45.69 -15.1044 13.0499 65.8325 51.2272 142.756 150.392 -44.1401 51.2164 -39.8113 -45.1004 36.1768 28.3328 12.185 -7.71486 -29.9464 -46.1723 79.0885 -5.5245 13.5045 -87.4764 -0.0162164 -10.0835 4.41214 -11.6567 -9.87972 4.85472 -34.5021 -10.9384 1.14505 -14.4895 -10.9384 1.14504 124.332 -40.5673 -43.9926 41.1276 -0.987189 -10.0659 86.6179 81.0748 -87.8647 -3.02666 -0.277089 6.74366 -66.0729 -46.3337 115.475 16.5147 5.25188 67.3511 50.317 35.0976 -132.991 -19.1617 -8.04722 46.1018 -82.222 8.53582 -15.3682 26.7779 18.6025 63.7099 
272.671 83.1573 -277.252 152.653 0.256349 -174.707 178.602 41.1309 -152.027 121.368 38.4872 142.628 48.6935 -14.1545 10.7659 64.2181 46.8272 141.603 151.487 -45.6124 51.3054 -44.9494 -44.3487 36.682 28.6869 11.88 -6.20499 -39.7057 -41.9961 65.7485 -5.56281 13.7084 -87.4019 -0.424311 -10.1372 4.49651 -12.0648 -9.92969 4.94137 -34.9129 -11.0149 1.20891 -14.9002 -11.0149 1.20892 125.503 -43.0842 -43.3306 37.5397 -3.69986 -7.70448 108.664 75.1482 -109.36 -4.23839 -0.437335 7.82541 -65.5934 -44.7021 116.605 15.5822 3.94403 65.5402 54.0527 33.2917 -134.787 -18.3625 -7.62275 45.8573 -81.6709 8.56648 -15.2122 26.358 18.7556 64.591 
